<mxfile host="app.diagrams.net" agent="Mozilla/5.0 (Windows NT 10.0; Win64; x64) AppleWebKit/537.36 (KHTML, like Gecko) Chrome/139.0.0.0 Safari/537.36 Edg/139.0.0.0" version="28.1.0">
  <diagram name="Page-1" id="58cdce13-f638-feb5-8d6f-7d28b1aa9fa0">
    <mxGraphModel dx="1620" dy="767" grid="1" gridSize="10" guides="1" tooltips="1" connect="1" arrows="1" fold="1" page="1" pageScale="1" pageWidth="1100" pageHeight="850" background="none" math="0" shadow="0">
      <root>
        <mxCell id="0" />
        <mxCell id="1" parent="0" />
        <mxCell id="382b91b5511bd0f7-1" value="" style="ellipse;html=1;shape=startState;fillColor=#000000;strokeColor=#ff0000;rounded=1;shadow=0;comic=0;labelBackgroundColor=none;fontFamily=Verdana;fontSize=12;fontColor=#000000;align=center;direction=south;" parent="1" vertex="1">
          <mxGeometry x="377.5" y="50" width="30" height="30" as="geometry" />
        </mxCell>
        <mxCell id="382b91b5511bd0f7-6" value="Create handler for db_lasec" style="rounded=1;whiteSpace=wrap;html=1;arcSize=24;fillColor=#ffffc0;strokeColor=#FF0000;shadow=0;comic=0;labelBackgroundColor=none;fontFamily=Verdana;fontSize=12;fontColor=#000000;align=center;" parent="1" vertex="1">
          <mxGeometry x="332" y="184.5" width="120" height="60" as="geometry" />
        </mxCell>
        <mxCell id="-b5_aeEiTCpsvocbng9k-2" value="Create file&amp;nbsp;&lt;div&gt;TCPIP_Gateway_L4_py.pid&lt;/div&gt;" style="rounded=1;whiteSpace=wrap;html=1;arcSize=24;fillColor=#ffffc0;strokeColor=#ff0000;shadow=0;comic=0;labelBackgroundColor=none;fontFamily=Verdana;fontSize=12;fontColor=#000000;align=center;" parent="1" vertex="1">
          <mxGeometry x="281" y="102" width="222" height="60" as="geometry" />
        </mxCell>
        <mxCell id="-b5_aeEiTCpsvocbng9k-25" value="&lt;h1 style=&quot;margin-top: 0px;&quot;&gt;TCPIP_Gateway.py&lt;/h1&gt;" style="text;html=1;whiteSpace=wrap;overflow=hidden;rounded=0;" parent="1" vertex="1">
          <mxGeometry width="320" height="50" as="geometry" />
        </mxCell>
        <mxCell id="FOoScroTNqUPBx7kzsJf-8" style="edgeStyle=orthogonalEdgeStyle;html=1;labelBackgroundColor=none;endArrow=open;endSize=8;strokeColor=#ff0000;fontFamily=Verdana;fontSize=12;align=left;exitX=0.902;exitY=0.525;exitDx=0;exitDy=0;entryX=0.5;entryY=0;entryDx=0;entryDy=0;exitPerimeter=0;" parent="1" source="382b91b5511bd0f7-1" target="-b5_aeEiTCpsvocbng9k-2" edge="1">
          <mxGeometry relative="1" as="geometry">
            <mxPoint x="390.39" y="80" as="sourcePoint" />
            <mxPoint x="390.39" y="118" as="targetPoint" />
          </mxGeometry>
        </mxCell>
        <mxCell id="FOoScroTNqUPBx7kzsJf-9" style="edgeStyle=orthogonalEdgeStyle;html=1;labelBackgroundColor=none;endArrow=open;endSize=8;strokeColor=#ff0000;fontFamily=Verdana;fontSize=12;align=left;exitX=0.5;exitY=1;exitDx=0;exitDy=0;entryX=0.5;entryY=0;entryDx=0;entryDy=0;" parent="1" source="-b5_aeEiTCpsvocbng9k-2" target="382b91b5511bd0f7-6" edge="1">
          <mxGeometry relative="1" as="geometry">
            <mxPoint x="457.5" y="207" as="sourcePoint" />
            <mxPoint x="457.5" y="245" as="targetPoint" />
          </mxGeometry>
        </mxCell>
        <mxCell id="FOoScroTNqUPBx7kzsJf-10" value="Create TCPIP module using host_ip and port." style="rounded=1;whiteSpace=wrap;html=1;arcSize=24;fillColor=#ffffc0;strokeColor=#FF0000;shadow=0;comic=0;labelBackgroundColor=none;fontFamily=Verdana;fontSize=12;fontColor=#000000;align=center;" parent="1" vertex="1">
          <mxGeometry x="332" y="264.5" width="116" height="70" as="geometry" />
        </mxCell>
        <mxCell id="FOoScroTNqUPBx7kzsJf-12" style="edgeStyle=orthogonalEdgeStyle;html=1;labelBackgroundColor=none;endArrow=open;endSize=8;strokeColor=#ff0000;fontFamily=Verdana;fontSize=12;align=left;exitX=0.483;exitY=0.996;exitDx=0;exitDy=0;entryX=0.5;entryY=0;entryDx=0;entryDy=0;exitPerimeter=0;" parent="1" source="382b91b5511bd0f7-6" target="FOoScroTNqUPBx7kzsJf-10" edge="1">
          <mxGeometry relative="1" as="geometry">
            <mxPoint x="389.86" y="290" as="sourcePoint" />
            <mxPoint x="389.86" y="330" as="targetPoint" />
          </mxGeometry>
        </mxCell>
        <mxCell id="FOoScroTNqUPBx7kzsJf-13" style="edgeStyle=orthogonalEdgeStyle;html=1;labelBackgroundColor=none;endArrow=open;endSize=8;strokeColor=#ff0000;fontFamily=Verdana;fontSize=12;align=left;exitX=0.5;exitY=1;exitDx=0;exitDy=0;entryX=0.5;entryY=0;entryDx=0;entryDy=0;" parent="1" source="FOoScroTNqUPBx7kzsJf-10" target="dgmD3xeiYTGedOPiwkHP-36" edge="1">
          <mxGeometry relative="1" as="geometry">
            <mxPoint x="389" y="400" as="sourcePoint" />
            <mxPoint x="389.9999999999998" y="364.5" as="targetPoint" />
          </mxGeometry>
        </mxCell>
        <mxCell id="dgmD3xeiYTGedOPiwkHP-1" value="&lt;div&gt;&lt;span style=&quot;background-color: transparent; color: light-dark(rgb(0, 0, 0), rgb(255, 255, 255));&quot;&gt;&lt;br&gt;&lt;/span&gt;&lt;/div&gt;&lt;div&gt;&lt;span style=&quot;background-color: transparent; color: light-dark(rgb(0, 0, 0), rgb(255, 255, 255));&quot;&gt;Does TCPIP_&lt;/span&gt;&lt;span style=&quot;font-family: Verdana;&quot;&gt;Gateway&lt;/span&gt;&lt;span style=&quot;background-color: transparent; color: light-dark(rgb(0, 0, 0), rgb(255, 255, 255)); font-family: Verdana;&quot;&gt;_L4_py&lt;/span&gt;&lt;span style=&quot;background-color: transparent; color: light-dark(rgb(0, 0, 0), rgb(255, 255, 255)); font-family: Verdana;&quot;&gt;.pid&lt;/span&gt;&lt;span style=&quot;background-color: transparent; color: light-dark(rgb(0, 0, 0), rgb(255, 255, 255)); font-family: Verdana;&quot;&gt;&amp;nbsp;&lt;/span&gt;&lt;/div&gt;&lt;div&gt;&lt;span style=&quot;font-family: Verdana;&quot;&gt;exist ?&lt;/span&gt;&lt;/div&gt;" style="rhombus;whiteSpace=wrap;html=1;fillColor=#FFFFCC;strokeColor=#FF0000;" parent="1" vertex="1">
          <mxGeometry x="280" y="464.5" width="220" height="90" as="geometry" />
        </mxCell>
        <mxCell id="dgmD3xeiYTGedOPiwkHP-4" value="Close db&#39;s connections" style="rounded=1;whiteSpace=wrap;html=1;arcSize=24;fillColor=#ffffc0;strokeColor=#ff0000;shadow=0;comic=0;labelBackgroundColor=none;fontFamily=Verdana;fontSize=12;fontColor=#000000;align=center;" parent="1" vertex="1">
          <mxGeometry x="325" y="674.5" width="130" height="50" as="geometry" />
        </mxCell>
        <mxCell id="dgmD3xeiYTGedOPiwkHP-6" style="edgeStyle=orthogonalEdgeStyle;html=1;labelBackgroundColor=none;endArrow=open;endSize=8;strokeColor=#ff0000;fontFamily=Verdana;fontSize=12;align=left;exitX=0.5;exitY=1;exitDx=0;exitDy=0;entryX=0.5;entryY=0;entryDx=0;entryDy=0;" parent="1" source="dgmD3xeiYTGedOPiwkHP-1" target="dgmD3xeiYTGedOPiwkHP-4" edge="1">
          <mxGeometry relative="1" as="geometry">
            <mxPoint x="500" y="643.5" as="sourcePoint" />
            <mxPoint x="500" y="679.5" as="targetPoint" />
            <Array as="points">
              <mxPoint x="390" y="624.5" />
              <mxPoint x="390" y="624.5" />
            </Array>
          </mxGeometry>
        </mxCell>
        <mxCell id="dgmD3xeiYTGedOPiwkHP-11" value="No" style="edgeLabel;html=1;align=center;verticalAlign=middle;resizable=0;points=[];" parent="dgmD3xeiYTGedOPiwkHP-6" vertex="1" connectable="0">
          <mxGeometry x="-0.1872" relative="1" as="geometry">
            <mxPoint y="-4" as="offset" />
          </mxGeometry>
        </mxCell>
        <mxCell id="dgmD3xeiYTGedOPiwkHP-7" style="edgeStyle=orthogonalEdgeStyle;html=1;labelBackgroundColor=none;endArrow=open;endSize=8;strokeColor=#ff0000;fontFamily=Verdana;fontSize=12;align=left;exitX=0.5;exitY=1;exitDx=0;exitDy=0;entryX=0.5;entryY=0;entryDx=0;entryDy=0;" parent="1" source="dgmD3xeiYTGedOPiwkHP-4" target="dgmD3xeiYTGedOPiwkHP-9" edge="1">
          <mxGeometry relative="1" as="geometry">
            <mxPoint x="392" y="704.5" as="sourcePoint" />
            <mxPoint x="390" y="714.5" as="targetPoint" />
            <Array as="points">
              <mxPoint x="390" y="774.5" />
              <mxPoint x="390" y="774.5" />
            </Array>
          </mxGeometry>
        </mxCell>
        <mxCell id="dgmD3xeiYTGedOPiwkHP-9" value="" style="ellipse;html=1;shape=endState;fillColor=#000000;strokeColor=#ff0000;rounded=1;shadow=0;comic=0;labelBackgroundColor=none;fontFamily=Verdana;fontSize=12;fontColor=#000000;align=center;" parent="1" vertex="1">
          <mxGeometry x="375" y="794.5" width="30" height="30" as="geometry" />
        </mxCell>
        <mxCell id="dgmD3xeiYTGedOPiwkHP-12" value="Send H; frame" style="rounded=1;whiteSpace=wrap;html=1;arcSize=24;fillColor=#ffffc0;strokeColor=#ff0000;shadow=0;comic=0;labelBackgroundColor=none;fontFamily=Verdana;fontSize=12;fontColor=#000000;align=center;" parent="1" vertex="1">
          <mxGeometry x="690" y="679.5" width="116" height="40" as="geometry" />
        </mxCell>
        <mxCell id="dgmD3xeiYTGedOPiwkHP-14" style="edgeStyle=orthogonalEdgeStyle;html=1;labelBackgroundColor=none;endArrow=open;endSize=8;strokeColor=#ff0000;fontFamily=Verdana;fontSize=12;align=left;entryX=0.5;entryY=0;entryDx=0;entryDy=0;exitX=1;exitY=0;exitDx=0;exitDy=0;" parent="1" source="dgmD3xeiYTGedOPiwkHP-1" target="EhQeAvUy5RUSxD8RvWDa-1" edge="1">
          <mxGeometry relative="1" as="geometry">
            <mxPoint x="501" y="571.5" as="sourcePoint" />
            <mxPoint x="671" y="520.5" as="targetPoint" />
            <Array as="points">
              <mxPoint x="445" y="424.5" />
              <mxPoint x="531" y="424.5" />
              <mxPoint x="531" y="64.5" />
              <mxPoint x="748" y="64.5" />
            </Array>
          </mxGeometry>
        </mxCell>
        <mxCell id="dgmD3xeiYTGedOPiwkHP-15" value="Yes" style="edgeLabel;html=1;align=center;verticalAlign=middle;resizable=0;points=[];" parent="dgmD3xeiYTGedOPiwkHP-14" vertex="1" connectable="0">
          <mxGeometry x="-0.0693" y="3" relative="1" as="geometry">
            <mxPoint x="3" y="123" as="offset" />
          </mxGeometry>
        </mxCell>
        <mxCell id="dgmD3xeiYTGedOPiwkHP-17" style="edgeStyle=orthogonalEdgeStyle;html=1;labelBackgroundColor=none;endArrow=open;endSize=8;strokeColor=#ff0000;fontFamily=Verdana;fontSize=12;align=left;exitX=0.5;exitY=1;exitDx=0;exitDy=0;entryX=0.5;entryY=0;entryDx=0;entryDy=0;" parent="1" source="dgmD3xeiYTGedOPiwkHP-12" target="dgmD3xeiYTGedOPiwkHP-45" edge="1">
          <mxGeometry relative="1" as="geometry">
            <mxPoint x="761.48" y="779" as="sourcePoint" />
            <mxPoint x="741" y="820.5" as="targetPoint" />
          </mxGeometry>
        </mxCell>
        <mxCell id="dgmD3xeiYTGedOPiwkHP-36" value="start_time := current time" style="rounded=1;whiteSpace=wrap;html=1;arcSize=24;fillColor=#ffffc0;strokeColor=#FF0000;shadow=0;comic=0;labelBackgroundColor=none;fontFamily=Verdana;fontSize=12;fontColor=#000000;align=center;" parent="1" vertex="1">
          <mxGeometry x="332" y="384.5" width="116" height="40" as="geometry" />
        </mxCell>
        <mxCell id="dgmD3xeiYTGedOPiwkHP-38" style="edgeStyle=orthogonalEdgeStyle;html=1;labelBackgroundColor=none;endArrow=open;endSize=8;strokeColor=#ff0000;fontFamily=Verdana;fontSize=12;align=left;exitX=0.5;exitY=1;exitDx=0;exitDy=0;entryX=0.5;entryY=0;entryDx=0;entryDy=0;" parent="1" source="dgmD3xeiYTGedOPiwkHP-36" target="dgmD3xeiYTGedOPiwkHP-1" edge="1">
          <mxGeometry relative="1" as="geometry">
            <mxPoint x="484" y="506.5" as="sourcePoint" />
            <mxPoint x="484" y="536.5" as="targetPoint" />
            <Array as="points">
              <mxPoint x="390" y="464.5" />
            </Array>
          </mxGeometry>
        </mxCell>
        <mxCell id="dgmD3xeiYTGedOPiwkHP-45" value="For every register in db_lasec.Gateway_Table, create a B; frame, send it to the server and delete the register" style="rounded=1;whiteSpace=wrap;html=1;arcSize=24;fillColor=#ffffc0;strokeColor=#ff0000;shadow=0;comic=0;labelBackgroundColor=none;fontFamily=Verdana;fontSize=12;fontColor=#000000;align=center;" parent="1" vertex="1">
          <mxGeometry x="660.5" y="750" width="175" height="90" as="geometry" />
        </mxCell>
        <mxCell id="dgmD3xeiYTGedOPiwkHP-46" style="edgeStyle=orthogonalEdgeStyle;html=1;labelBackgroundColor=none;endArrow=open;endSize=8;strokeColor=#ff0000;fontFamily=Verdana;fontSize=12;align=left;exitX=0.5;exitY=1;exitDx=0;exitDy=0;entryX=0.5;entryY=0;entryDx=0;entryDy=0;" parent="1" source="EhQeAvUy5RUSxD8RvWDa-9" target="dgmD3xeiYTGedOPiwkHP-12" edge="1">
          <mxGeometry relative="1" as="geometry">
            <mxPoint x="1142" y="713.4999999999999" as="sourcePoint" />
            <mxPoint x="1182" y="1049" as="targetPoint" />
            <Array as="points">
              <mxPoint x="748" y="660.5" />
              <mxPoint x="748" y="660.5" />
            </Array>
          </mxGeometry>
        </mxCell>
        <mxCell id="dgmD3xeiYTGedOPiwkHP-48" value="Yes" style="edgeLabel;html=1;align=center;verticalAlign=middle;resizable=0;points=[];" parent="dgmD3xeiYTGedOPiwkHP-46" vertex="1" connectable="0">
          <mxGeometry x="-0.225" y="-1" relative="1" as="geometry">
            <mxPoint x="23" y="-1" as="offset" />
          </mxGeometry>
        </mxCell>
        <mxCell id="EhQeAvUy5RUSxD8RvWDa-1" value="sleep 10 ms" style="rounded=1;whiteSpace=wrap;html=1;arcSize=24;fillColor=#ffffc0;strokeColor=#ff0000;shadow=0;comic=0;labelBackgroundColor=none;fontFamily=Verdana;fontSize=12;fontColor=#000000;align=center;" parent="1" vertex="1">
          <mxGeometry x="684" y="94.5" width="128" height="40" as="geometry" />
        </mxCell>
        <mxCell id="EhQeAvUy5RUSxD8RvWDa-2" value="&lt;div&gt;&lt;br&gt;&lt;/div&gt;&lt;div&gt;current time - start_time&amp;nbsp;&lt;/div&gt;&lt;div&gt;&amp;gt; 2 s&lt;/div&gt;" style="rhombus;whiteSpace=wrap;html=1;fillColor=#FFFFCC;strokeColor=#FF0000;" parent="1" vertex="1">
          <mxGeometry x="663" y="164.5" width="170" height="47.5" as="geometry" />
        </mxCell>
        <mxCell id="EhQeAvUy5RUSxD8RvWDa-3" style="edgeStyle=orthogonalEdgeStyle;html=1;labelBackgroundColor=none;endArrow=open;endSize=8;strokeColor=#ff0000;fontFamily=Verdana;fontSize=12;align=left;exitX=0.5;exitY=1;exitDx=0;exitDy=0;entryX=0.5;entryY=0;entryDx=0;entryDy=0;" parent="1" source="EhQeAvUy5RUSxD8RvWDa-1" target="EhQeAvUy5RUSxD8RvWDa-2" edge="1">
          <mxGeometry relative="1" as="geometry">
            <mxPoint x="841" y="204.5" as="sourcePoint" />
            <mxPoint x="748" y="164.5" as="targetPoint" />
          </mxGeometry>
        </mxCell>
        <mxCell id="EhQeAvUy5RUSxD8RvWDa-4" value="Get TV4 MAC, IP and AP MAC from db_lasec.WIFI_connection_Table" style="rounded=1;whiteSpace=wrap;html=1;arcSize=24;fillColor=#ffffc0;strokeColor=#ff0000;shadow=0;comic=0;labelBackgroundColor=none;fontFamily=Verdana;fontSize=12;fontColor=#000000;align=center;" parent="1" vertex="1">
          <mxGeometry x="638" y="338.5" width="220" height="50" as="geometry" />
        </mxCell>
        <mxCell id="EhQeAvUy5RUSxD8RvWDa-5" style="edgeStyle=orthogonalEdgeStyle;html=1;labelBackgroundColor=none;endArrow=open;endSize=8;strokeColor=#ff0000;fontFamily=Verdana;fontSize=12;align=left;exitX=0.5;exitY=1;exitDx=0;exitDy=0;entryX=0.5;entryY=0;entryDx=0;entryDy=0;" parent="1" source="EhQeAvUy5RUSxD8RvWDa-2" target="EhQeAvUy5RUSxD8RvWDa-31" edge="1">
          <mxGeometry relative="1" as="geometry">
            <mxPoint x="791" y="164.5" as="sourcePoint" />
            <mxPoint x="791" y="194.5" as="targetPoint" />
          </mxGeometry>
        </mxCell>
        <mxCell id="EhQeAvUy5RUSxD8RvWDa-6" value="Yes" style="edgeLabel;html=1;align=center;verticalAlign=middle;resizable=0;points=[];" parent="EhQeAvUy5RUSxD8RvWDa-5" vertex="1" connectable="0">
          <mxGeometry x="-0.3005" y="1" relative="1" as="geometry">
            <mxPoint as="offset" />
          </mxGeometry>
        </mxCell>
        <mxCell id="EhQeAvUy5RUSxD8RvWDa-7" style="edgeStyle=orthogonalEdgeStyle;html=1;labelBackgroundColor=none;endArrow=open;endSize=8;strokeColor=#ff0000;fontFamily=Verdana;fontSize=12;align=left;exitX=0;exitY=0.5;exitDx=0;exitDy=0;entryX=1;entryY=0.5;entryDx=0;entryDy=0;" parent="1" source="EhQeAvUy5RUSxD8RvWDa-2" target="dgmD3xeiYTGedOPiwkHP-1" edge="1">
          <mxGeometry relative="1" as="geometry">
            <mxPoint x="591" y="304.5" as="sourcePoint" />
            <mxPoint x="591" y="334.5" as="targetPoint" />
          </mxGeometry>
        </mxCell>
        <mxCell id="EhQeAvUy5RUSxD8RvWDa-8" value="No" style="edgeLabel;html=1;align=center;verticalAlign=middle;resizable=0;points=[];" parent="EhQeAvUy5RUSxD8RvWDa-7" vertex="1" connectable="0">
          <mxGeometry x="-0.7851" y="1" relative="1" as="geometry">
            <mxPoint as="offset" />
          </mxGeometry>
        </mxCell>
        <mxCell id="EhQeAvUy5RUSxD8RvWDa-9" value="&lt;div&gt;connected_state := True&lt;/div&gt;" style="rhombus;whiteSpace=wrap;html=1;fillColor=#FFFFCC;strokeColor=#FF0000;" parent="1" vertex="1">
          <mxGeometry x="673.5" y="580" width="149" height="60" as="geometry" />
        </mxCell>
        <mxCell id="EhQeAvUy5RUSxD8RvWDa-27" value="Close TCPIP&amp;nbsp;&lt;div&gt;connection.&lt;/div&gt;" style="rounded=1;whiteSpace=wrap;html=1;arcSize=24;fillColor=#ffffc0;strokeColor=#ff0000;shadow=0;comic=0;labelBackgroundColor=none;fontFamily=Verdana;fontSize=12;fontColor=#000000;align=center;" parent="1" vertex="1">
          <mxGeometry x="488" y="700" width="93" height="40" as="geometry" />
        </mxCell>
        <mxCell id="EhQeAvUy5RUSxD8RvWDa-28" style="edgeStyle=orthogonalEdgeStyle;html=1;labelBackgroundColor=none;endArrow=open;endSize=8;strokeColor=#ff0000;fontFamily=Verdana;fontSize=12;align=left;entryX=1;entryY=0.5;entryDx=0;entryDy=0;exitX=0.5;exitY=0;exitDx=0;exitDy=0;" parent="1" source="EhQeAvUy5RUSxD8RvWDa-27" target="dgmD3xeiYTGedOPiwkHP-1" edge="1">
          <mxGeometry relative="1" as="geometry">
            <mxPoint x="668" y="564.5" as="sourcePoint" />
            <mxPoint x="631" y="759.5" as="targetPoint" />
            <Array as="points">
              <mxPoint x="535" y="509.5" />
            </Array>
          </mxGeometry>
        </mxCell>
        <mxCell id="EhQeAvUy5RUSxD8RvWDa-31" value="start_time := current time" style="rounded=1;whiteSpace=wrap;html=1;arcSize=24;fillColor=#ffffc0;strokeColor=#FF0000;shadow=0;comic=0;labelBackgroundColor=none;fontFamily=Verdana;fontSize=12;fontColor=#000000;align=center;" parent="1" vertex="1">
          <mxGeometry x="690" y="264.5" width="116" height="40" as="geometry" />
        </mxCell>
        <mxCell id="EhQeAvUy5RUSxD8RvWDa-32" style="edgeStyle=orthogonalEdgeStyle;html=1;labelBackgroundColor=none;endArrow=open;endSize=8;strokeColor=#ff0000;fontFamily=Verdana;fontSize=12;align=left;entryX=0.5;entryY=0;entryDx=0;entryDy=0;exitX=0.5;exitY=1;exitDx=0;exitDy=0;" parent="1" source="EhQeAvUy5RUSxD8RvWDa-31" target="EhQeAvUy5RUSxD8RvWDa-4" edge="1">
          <mxGeometry relative="1" as="geometry">
            <mxPoint x="871" y="264.5" as="sourcePoint" />
            <mxPoint x="871" y="294.5" as="targetPoint" />
          </mxGeometry>
        </mxCell>
        <mxCell id="uqD2QBbAMglO9zeRtQ-q-1" value="connected_state :=&amp;nbsp;&lt;span style=&quot;font-family: Helvetica;&quot;&gt;TCPIP connection success&amp;nbsp;&lt;/span&gt;&amp;nbsp;" style="rounded=1;whiteSpace=wrap;html=1;arcSize=24;fillColor=#ffffc0;strokeColor=#ff0000;shadow=0;comic=0;labelBackgroundColor=none;fontFamily=Verdana;fontSize=12;fontColor=#000000;align=center;" vertex="1" parent="1">
          <mxGeometry x="638" y="421.5" width="220" height="50" as="geometry" />
        </mxCell>
        <mxCell id="uqD2QBbAMglO9zeRtQ-q-2" style="edgeStyle=orthogonalEdgeStyle;html=1;labelBackgroundColor=none;endArrow=open;endSize=8;strokeColor=#ff0000;fontFamily=Verdana;fontSize=12;align=left;exitX=0.5;exitY=1;exitDx=0;exitDy=0;" edge="1" parent="1" source="EhQeAvUy5RUSxD8RvWDa-4" target="uqD2QBbAMglO9zeRtQ-q-1">
          <mxGeometry relative="1" as="geometry">
            <mxPoint x="930" y="290" as="sourcePoint" />
            <mxPoint x="930" y="324" as="targetPoint" />
          </mxGeometry>
        </mxCell>
        <mxCell id="uqD2QBbAMglO9zeRtQ-q-3" value="Create H; frame" style="rounded=1;whiteSpace=wrap;html=1;arcSize=24;fillColor=#ffffc0;strokeColor=#ff0000;shadow=0;comic=0;labelBackgroundColor=none;fontFamily=Verdana;fontSize=12;fontColor=#000000;align=center;" vertex="1" parent="1">
          <mxGeometry x="687" y="500" width="122" height="50" as="geometry" />
        </mxCell>
        <mxCell id="uqD2QBbAMglO9zeRtQ-q-4" style="edgeStyle=orthogonalEdgeStyle;html=1;labelBackgroundColor=none;endArrow=open;endSize=8;strokeColor=#ff0000;fontFamily=Verdana;fontSize=12;align=left;exitX=0.5;exitY=1;exitDx=0;exitDy=0;entryX=0.5;entryY=0;entryDx=0;entryDy=0;" edge="1" parent="1" source="uqD2QBbAMglO9zeRtQ-q-1" target="uqD2QBbAMglO9zeRtQ-q-3">
          <mxGeometry relative="1" as="geometry">
            <mxPoint x="830" y="400" as="sourcePoint" />
            <mxPoint x="830" y="436" as="targetPoint" />
          </mxGeometry>
        </mxCell>
        <mxCell id="uqD2QBbAMglO9zeRtQ-q-5" style="edgeStyle=orthogonalEdgeStyle;html=1;labelBackgroundColor=none;endArrow=open;endSize=8;strokeColor=#ff0000;fontFamily=Verdana;fontSize=12;align=left;exitX=0.5;exitY=1;exitDx=0;exitDy=0;entryX=0.5;entryY=0;entryDx=0;entryDy=0;" edge="1" parent="1" source="uqD2QBbAMglO9zeRtQ-q-3" target="EhQeAvUy5RUSxD8RvWDa-9">
          <mxGeometry relative="1" as="geometry">
            <mxPoint x="860" y="490" as="sourcePoint" />
            <mxPoint x="860" y="519" as="targetPoint" />
            <Array as="points">
              <mxPoint x="748" y="570" />
            </Array>
          </mxGeometry>
        </mxCell>
        <mxCell id="uqD2QBbAMglO9zeRtQ-q-6" style="edgeStyle=orthogonalEdgeStyle;html=1;labelBackgroundColor=none;endArrow=open;endSize=8;strokeColor=#ff0000;fontFamily=Verdana;fontSize=12;align=left;exitX=0;exitY=0.5;exitDx=0;exitDy=0;entryX=1;entryY=0.5;entryDx=0;entryDy=0;" edge="1" parent="1" source="EhQeAvUy5RUSxD8RvWDa-9" target="dgmD3xeiYTGedOPiwkHP-1">
          <mxGeometry relative="1" as="geometry">
            <mxPoint x="850" y="560" as="sourcePoint" />
            <mxPoint x="850" y="590" as="targetPoint" />
            <Array as="points">
              <mxPoint x="580" y="610" />
              <mxPoint x="580" y="510" />
            </Array>
          </mxGeometry>
        </mxCell>
        <mxCell id="uqD2QBbAMglO9zeRtQ-q-8" value="No" style="edgeLabel;html=1;align=center;verticalAlign=middle;resizable=0;points=[];" vertex="1" connectable="0" parent="uqD2QBbAMglO9zeRtQ-q-6">
          <mxGeometry x="0.024" relative="1" as="geometry">
            <mxPoint as="offset" />
          </mxGeometry>
        </mxCell>
        <mxCell id="uqD2QBbAMglO9zeRtQ-q-9" style="edgeStyle=orthogonalEdgeStyle;html=1;labelBackgroundColor=none;endArrow=open;endSize=8;strokeColor=#ff0000;fontFamily=Verdana;fontSize=12;align=left;exitX=0;exitY=0.5;exitDx=0;exitDy=0;entryX=0.5;entryY=1;entryDx=0;entryDy=0;" edge="1" parent="1" source="dgmD3xeiYTGedOPiwkHP-45" target="EhQeAvUy5RUSxD8RvWDa-27">
          <mxGeometry relative="1" as="geometry">
            <mxPoint x="1034" y="740" as="sourcePoint" />
            <mxPoint x="860" y="640" as="targetPoint" />
            <Array as="points">
              <mxPoint x="535" y="795" />
            </Array>
          </mxGeometry>
        </mxCell>
      </root>
    </mxGraphModel>
  </diagram>
</mxfile>
